<mxfile host="app.diagrams.net" agent="Mozilla/5.0 (X11; Linux x86_64; rv:129.0) Gecko/20100101 Firefox/129.0" version="24.7.10">
  <diagram name="Page-1" id="BQthsOaXhX3TqZsNHA8-">
    <mxGraphModel dx="1358" dy="890" grid="1" gridSize="10" guides="1" tooltips="1" connect="1" arrows="1" fold="1" page="1" pageScale="1" pageWidth="850" pageHeight="1100" math="0" shadow="0">
      <root>
        <mxCell id="0" />
        <mxCell id="1" parent="0" />
        <mxCell id="ePPWhS6j85YLleEA6Q91-1" value="Start&lt;br&gt;Call TwoSum(nums,targets)" style="rounded=0;whiteSpace=wrap;html=1;" vertex="1" parent="1">
          <mxGeometry x="340" y="140" width="160" height="60" as="geometry" />
        </mxCell>
        <mxCell id="ePPWhS6j85YLleEA6Q91-6" value="" style="edgeStyle=orthogonalEdgeStyle;rounded=0;orthogonalLoop=1;jettySize=auto;html=1;" edge="1" parent="1" source="ePPWhS6j85YLleEA6Q91-2" target="ePPWhS6j85YLleEA6Q91-5">
          <mxGeometry relative="1" as="geometry" />
        </mxCell>
        <mxCell id="ePPWhS6j85YLleEA6Q91-9" value="Yes" style="edgeLabel;html=1;align=center;verticalAlign=middle;resizable=0;points=[];" vertex="1" connectable="0" parent="ePPWhS6j85YLleEA6Q91-6">
          <mxGeometry x="-0.14" y="5" relative="1" as="geometry">
            <mxPoint as="offset" />
          </mxGeometry>
        </mxCell>
        <mxCell id="ePPWhS6j85YLleEA6Q91-10" value="" style="edgeStyle=orthogonalEdgeStyle;rounded=0;orthogonalLoop=1;jettySize=auto;html=1;" edge="1" parent="1" source="ePPWhS6j85YLleEA6Q91-2" target="ePPWhS6j85YLleEA6Q91-7">
          <mxGeometry relative="1" as="geometry" />
        </mxCell>
        <mxCell id="ePPWhS6j85YLleEA6Q91-2" value="&amp;nbsp;Nums or Target is null" style="rounded=0;whiteSpace=wrap;html=1;" vertex="1" parent="1">
          <mxGeometry x="340" y="270" width="160" height="60" as="geometry" />
        </mxCell>
        <mxCell id="ePPWhS6j85YLleEA6Q91-4" value="" style="endArrow=classic;html=1;rounded=0;exitX=0.5;exitY=1;exitDx=0;exitDy=0;entryX=0.5;entryY=0;entryDx=0;entryDy=0;" edge="1" parent="1" source="ePPWhS6j85YLleEA6Q91-1" target="ePPWhS6j85YLleEA6Q91-2">
          <mxGeometry width="50" height="50" relative="1" as="geometry">
            <mxPoint x="400" y="490" as="sourcePoint" />
            <mxPoint x="450" y="440" as="targetPoint" />
          </mxGeometry>
        </mxCell>
        <mxCell id="ePPWhS6j85YLleEA6Q91-5" value="Return []" style="rounded=0;whiteSpace=wrap;html=1;" vertex="1" parent="1">
          <mxGeometry x="120" y="270" width="120" height="60" as="geometry" />
        </mxCell>
        <mxCell id="ePPWhS6j85YLleEA6Q91-13" value="" style="edgeStyle=orthogonalEdgeStyle;rounded=0;orthogonalLoop=1;jettySize=auto;html=1;" edge="1" parent="1" source="ePPWhS6j85YLleEA6Q91-7" target="ePPWhS6j85YLleEA6Q91-8">
          <mxGeometry relative="1" as="geometry" />
        </mxCell>
        <mxCell id="ePPWhS6j85YLleEA6Q91-30" style="edgeStyle=orthogonalEdgeStyle;rounded=0;orthogonalLoop=1;jettySize=auto;html=1;entryX=0.5;entryY=1;entryDx=0;entryDy=0;" edge="1" parent="1" source="ePPWhS6j85YLleEA6Q91-7" target="ePPWhS6j85YLleEA6Q91-5">
          <mxGeometry relative="1" as="geometry" />
        </mxCell>
        <mxCell id="ePPWhS6j85YLleEA6Q91-7" value="For number, index in nums" style="rounded=0;whiteSpace=wrap;html=1;" vertex="1" parent="1">
          <mxGeometry x="360" y="420" width="120" height="60" as="geometry" />
        </mxCell>
        <mxCell id="ePPWhS6j85YLleEA6Q91-15" value="" style="edgeStyle=orthogonalEdgeStyle;rounded=0;orthogonalLoop=1;jettySize=auto;html=1;" edge="1" parent="1" source="ePPWhS6j85YLleEA6Q91-8" target="ePPWhS6j85YLleEA6Q91-14">
          <mxGeometry relative="1" as="geometry" />
        </mxCell>
        <mxCell id="ePPWhS6j85YLleEA6Q91-18" value="" style="edgeStyle=orthogonalEdgeStyle;rounded=0;orthogonalLoop=1;jettySize=auto;html=1;" edge="1" parent="1" source="ePPWhS6j85YLleEA6Q91-8" target="ePPWhS6j85YLleEA6Q91-17">
          <mxGeometry relative="1" as="geometry" />
        </mxCell>
        <mxCell id="ePPWhS6j85YLleEA6Q91-8" value="Check if the number is in the dictionary" style="rounded=0;whiteSpace=wrap;html=1;" vertex="1" parent="1">
          <mxGeometry x="360" y="520" width="120" height="60" as="geometry" />
        </mxCell>
        <mxCell id="ePPWhS6j85YLleEA6Q91-12" value="No" style="text;html=1;align=center;verticalAlign=middle;whiteSpace=wrap;rounded=0;" vertex="1" parent="1">
          <mxGeometry x="425" y="360" width="60" height="30" as="geometry" />
        </mxCell>
        <mxCell id="ePPWhS6j85YLleEA6Q91-14" value="Return [Index, Nums_Dict[number]" style="rounded=0;whiteSpace=wrap;html=1;" vertex="1" parent="1">
          <mxGeometry x="360" y="660" width="120" height="60" as="geometry" />
        </mxCell>
        <mxCell id="ePPWhS6j85YLleEA6Q91-16" value="Yes" style="text;html=1;align=center;verticalAlign=middle;whiteSpace=wrap;rounded=0;" vertex="1" parent="1">
          <mxGeometry x="430" y="600" width="60" height="30" as="geometry" />
        </mxCell>
        <mxCell id="ePPWhS6j85YLleEA6Q91-28" style="edgeStyle=orthogonalEdgeStyle;rounded=0;orthogonalLoop=1;jettySize=auto;html=1;exitX=0.5;exitY=0;exitDx=0;exitDy=0;entryX=1;entryY=0.5;entryDx=0;entryDy=0;" edge="1" parent="1" source="ePPWhS6j85YLleEA6Q91-17" target="ePPWhS6j85YLleEA6Q91-7">
          <mxGeometry relative="1" as="geometry" />
        </mxCell>
        <mxCell id="ePPWhS6j85YLleEA6Q91-17" value="Insert into dicitonary Nums_Dict (Target-Number, Index)" style="rounded=0;whiteSpace=wrap;html=1;" vertex="1" parent="1">
          <mxGeometry x="570" y="520" width="120" height="60" as="geometry" />
        </mxCell>
        <mxCell id="ePPWhS6j85YLleEA6Q91-19" value="No" style="text;html=1;align=center;verticalAlign=middle;whiteSpace=wrap;rounded=0;" vertex="1" parent="1">
          <mxGeometry x="490" y="500" width="60" height="30" as="geometry" />
        </mxCell>
        <mxCell id="ePPWhS6j85YLleEA6Q91-25" value="If no found value after going through whole array" style="text;html=1;align=center;verticalAlign=middle;whiteSpace=wrap;rounded=0;" vertex="1" parent="1">
          <mxGeometry x="170" y="460" width="130" height="30" as="geometry" />
        </mxCell>
      </root>
    </mxGraphModel>
  </diagram>
</mxfile>
